<svg width="130" viewBox="0 0 775 210" fill="none" xmlns="http://www.w3.org/2000/svg" role="img" focusable="false"
    aria-label="Preply">
    <g data-name="logo-rebrand" fill="#121117">
        <g data-name="preply" fill-rule="evenodd" clip-rule="evenodd">
            <path
                d="M100.042 56.317c-4.18-6.861-9.903-12.24-17.194-16.134-7.28-3.895-15.638-5.854-25.02-5.854H0v138.654h32.378V125.44h25.44c9.403 0 17.739-1.981 25.019-5.944 7.28-3.952 13.014-9.398 17.194-16.338 4.168-6.94 6.246-14.764 6.246-23.471s-2.09-16.508-6.246-23.37h.011zm-28.12 31.091c-1.328 2.254-3.213 3.997-5.655 5.254-2.442 1.245-5.27 1.88-8.438 1.88H32.4V65.023h25.428c3.18 0 5.996.634 8.438 1.88 2.453 1.257 4.338 3.011 5.656 5.253 1.328 2.253 1.987 4.756 1.987 7.53s-.67 5.48-1.987 7.721zM194.497 73.946c3.895 4.778 6.609 11.232 8.142 19.327l-30.027 10.632c-.579-2.831-1.624-5.072-3.146-6.68-2.317-2.446-4.997-3.669-8.438-3.669-3.441 0-6.519 1.167-9.233 3.465-2.726 2.31-4.804 5.582-6.258 9.805-1.453 4.223-2.18 9.047-2.18 14.459v51.698h-30.8V66.021h27.415v18.421c2.249-4.36 4.941-8.05 8.052-11.096 3.112-3.034 6.712-5.378 10.823-7.031 4.1-1.653 8.473-2.48 13.118-2.48 9.539 0 17.058 3.363 22.554 10.1l-.022.011zM423.496 91.382c-4.566-8.446-10.801-15.149-18.682-20.108-7.882-4.948-16.593-7.427-26.121-7.427-9.528 0-17.819 2.083-24.837 6.238a40.292 40.292 0 00-10.528 9.024V66.021h-27.415v144.303h30.799v-46.716c.239.226.466.464.693.679 3.907 3.567 8.506 6.273 13.81 8.129 5.292 1.835 11.118 2.774 17.489 2.774 9.665 0 18.433-2.479 26.325-7.427 7.882-4.948 14.072-11.685 18.58-20.21 4.498-8.515 6.746-17.867 6.746-28.034 0-10.168-2.283-19.667-6.848-28.125l-.011-.012zm-27.813 41.497c-2.317 4.019-5.463 7.224-9.438 9.601-3.963 2.367-8.336 3.567-13.117 3.567-5.031 0-9.528-1.155-13.503-3.465-3.975-2.31-7.121-5.469-9.438-9.499-2.316-4.031-3.475-8.617-3.475-13.768 0-4.88 1.125-9.33 3.373-13.372 2.26-4.031 5.372-7.201 9.336-9.5 3.974-2.31 8.483-3.464 13.503-3.464 5.019 0 9.335 1.166 13.321 3.465 3.964 2.31 7.121 5.514 9.426 9.601 2.317 4.099 3.476 8.582 3.476 13.462 0 4.88-1.17 9.352-3.476 13.372h.012zM469.013 160.505c.466 5.152 1.284 9.319 2.488 12.478h-33.98V26.007h30.8v116.066c0 7.133.227 13.269.692 18.421v.011zM555.359 66.01h32.98L541.05 179.118c-4.1 9.896-9.506 17.595-16.195 23.075s-15.593 8.22-26.723 8.22c-4.497 0-8.869-.487-13.117-1.483-4.236-.996-7.882-2.208-10.925-3.669l9.335-29.313c2.783 1.449 5.463 2.57 8.052 3.363 2.578.792 5.122 1.189 7.643 1.189 3.578 0 6.462-.997 8.643-2.978 2.18-1.982 4.145-4.824 5.86-8.515l2.044-4.529-41.18-98.459h32.98l23.85 62.941 24.042-62.94v-.012zM307.622 114.763c0-9.511-2.317-18.16-6.962-25.95-4.645-7.802-10.993-13.904-19.068-18.32-8.075-4.438-17.081-6.646-27.018-6.646-9.937 0-19.477 2.423-27.813 7.235-8.347 4.812-14.911 11.492-19.67 20.006-4.77 8.515-7.154 18.059-7.154 28.623s2.373 20.425 7.154 28.815c4.77 8.39 11.493 14.934 20.159 19.611 8.676 4.687 18.636 7.042 29.902 7.042 13.912 0 25.235-3.295 33.968-9.918 6.576-4.959 11.437-11.345 14.548-19.135l-29.777-10.349c-.772 3.793-2.839 6.828-6.235 9.092-3.577 2.367-8.154 3.567-13.708 3.567-5.553 0-10.175-1.189-14.207-3.567-4.043-2.366-7.121-5.842-9.245-10.405-1.044-2.253-1.828-4.733-2.373-7.427h76.272c.795-4.224 1.204-8.311 1.204-12.274h.023zm-76.227-9.918c.284-.793.579-1.551.92-2.276 1.987-4.291 4.826-7.586 8.54-9.907 3.702-2.31 8.211-3.465 13.503-3.465 3.714 0 7.121.691 10.233 2.084 3.123 1.392 5.599 3.238 7.45 5.548s2.919 4.993 3.18 8.027h-43.837l.011-.011z">
            </path>
        </g>
        <path data-name="logomark" fill-rule="evenodd" clip-rule="evenodd"
            d="M753.752 52.819L676.173 5.537c-24.985-15.218-57.056 2.706-57.056 31.895v132.98c0 26.54 15.638 40.24 35.728 40.24 18.841 0 34.275-14.549 35.626-32.982 18.421-1.925 33.617-17.436 32.776-38.451l33.809-20.606C769.015 111.321 775 99.025 775 86.718c0-12.308-4.202-24.48-21.248-33.922v.023zm-98.907 136.66c-7.995 0-14.468-6.465-14.468-14.424 0-7.96 6.473-14.436 14.468-14.436s14.48 6.465 14.48 14.436c0 7.97-6.485 14.424-14.48 14.424zm47.154-48.12c0 5.446-3.521 15.331-16.547 15.331a36.206 36.206 0 00-5.224-6.703 37.266 37.266 0 00-6.678-5.288 35.629 35.629 0 00-18.705-5.265 35.813 35.813 0 00-14.48 3.046v-31.895c0-8.469 6.883-15.33 15.377-15.33h30.868c8.495 0 15.377 6.861 15.377 15.33v30.774h.012zm43.973-40.794l-22.725 13.847v-3.838c0-20.165-16.399-36.515-36.625-36.515h-30.868c-5.486 0-10.698 1.2-15.377 3.374v-39.99c0-12.647 13.889-20.425 24.723-13.825l80.884 49.298c10.368 6.318 10.368 21.331 0 27.649h-.012z">
        </path>
    </g>
</svg>